<svg width="296" height="80" viewBox="0 0 296 80" fill="none" xmlns="http://www.w3.org/2000/svg">
<g clip-path="url(#clip0_5866_15577)">
<path d="M12.5148 27.5127C12.043 27.5127 11.5348 27.7252 11.3171 28.1858L0.613096 48.7327C0.177183 49.6534 1.08442 50.3976 1.9194 50.3976C2.35483 50.3976 2.7539 50.2205 3.00798 49.7599L5.69284 44.6942H19.3367L21.9493 49.7244C22.2034 50.2205 22.6747 50.3976 23.1465 50.3976C24.0538 50.3976 24.8883 49.6889 24.3806 48.6972L13.6761 28.1858C13.422 27.7252 12.9866 27.5127 12.5148 27.5127ZM12.5148 31.3036L18.2118 42.4622H6.78142L12.5148 31.3036Z" fill="white"/>
<path d="M55.0089 28.6109L46.2275 42.0726L37.3739 28.6464C37.0834 28.1152 36.6116 27.8672 36.1762 27.8672C35.523 27.8672 34.9062 28.3983 34.9062 29.284V49.1222C34.9062 49.9724 35.5594 50.3975 36.2489 50.3975C36.9021 50.3975 37.5552 49.9724 37.5552 49.1222V33.606L44.9576 44.8357C45.6107 45.8275 46.8084 45.8275 47.4616 44.8357L54.8639 33.535V49.1222C54.8639 49.9724 55.5171 50.3975 56.2061 50.3975C56.8598 50.3975 57.5129 49.9724 57.5129 49.1222V29.2485C57.5129 28.3628 56.932 27.8672 56.2789 27.8672C55.8071 27.8672 55.3353 28.0797 55.0089 28.6109Z" fill="white"/>
<path d="M79.9015 27.5127C79.4297 27.5127 78.9215 27.7252 78.7038 28.1858L67.9998 48.7327C67.5639 49.6534 68.4711 50.3976 69.3061 50.3976C69.7415 50.3976 70.1406 50.2205 70.3947 49.7599L73.0796 44.6942H86.7235L89.3361 49.7244C89.5901 50.2205 90.0615 50.3976 90.5333 50.3976C91.4405 50.3976 92.275 49.6889 91.7673 48.6972L81.0628 28.1858C80.8087 27.7252 80.3733 27.5127 79.9015 27.5127ZM79.9015 31.3036L85.5985 42.4622H74.1681L79.9015 31.3036Z" fill="white"/>
<path d="M104.864 42.5332H111.903L118.907 49.9369C119.197 50.256 119.56 50.3975 119.886 50.3975C120.866 50.3975 121.737 49.2283 120.721 48.2365L115.169 42.3916C119.633 41.6475 121.628 39.0614 121.628 35.4835C121.628 31.3385 118.435 27.8672 112.158 27.8672H103.558C102.759 27.8672 102.215 28.3628 102.215 29.107V49.1932C102.215 49.9724 102.868 50.3975 103.521 50.3975C104.211 50.3975 104.864 49.9724 104.864 49.1577V42.5332ZM104.864 40.3012V30.2407H112.194C116.403 30.2407 118.907 32.5788 118.943 35.625C118.943 38.2112 116.875 40.3012 112.194 40.3012H104.864Z" fill="white"/>
<path d="M142.023 27.5127C141.551 27.5127 141.043 27.7252 140.825 28.1858L130.121 48.7327C129.685 49.6534 130.592 50.3976 131.427 50.3976C131.863 50.3976 132.262 50.2205 132.516 49.7599L135.201 44.6942H148.845L151.457 49.7244C151.711 50.2205 152.183 50.3976 152.654 50.3976C153.562 50.3976 154.396 49.6889 153.888 48.6972L143.184 28.1858C142.93 27.7252 142.494 27.5127 142.023 27.5127ZM142.023 31.3036L147.72 42.4622H136.289L142.023 31.3036Z" fill="white"/>
<path d="M180.703 29.0005V41.2579L181.066 46.6071L167.096 28.6819C166.732 28.1503 166.152 27.8672 165.608 27.8672C164.846 27.8672 164.156 28.3983 164.156 29.4256V49.0867C164.156 49.9724 164.846 50.3975 165.535 50.3975C166.225 50.3975 166.914 49.9724 166.914 49.0867V36.9003L166.624 32.0117L180.195 49.5828C180.521 50.114 181.175 50.3975 181.791 50.3975C182.626 50.3975 183.461 49.9014 183.461 48.8742V29.0005C183.461 28.2213 182.771 27.8672 182.118 27.8672C181.392 27.8672 180.703 28.2568 180.703 29.0005Z" fill="white"/>
<path d="M240.105 27.5127C235.243 27.5127 228.203 30.701 228.203 38.8134C228.203 45.757 233.719 50.7517 239.888 50.7517C243.335 50.7517 247.144 49.1223 249.14 46.3591C250.084 45.0483 247.87 43.773 247.072 44.9423C245.366 47.0678 242.754 48.3076 239.96 48.3076C234.989 48.3076 230.779 44.1981 230.779 38.8489C230.779 31.8702 236.295 29.9218 240.178 29.9218C242.609 29.9218 244.822 30.5949 246.782 32.6139C247.798 33.6767 249.721 32.2243 248.632 31.02C246.31 28.611 243.407 27.5127 240.105 27.5127Z" fill="white"/>
<path d="M254.85 50.4143C255.389 50.4143 255.743 50.0523 255.743 49.559C255.743 49.0652 255.389 48.7036 254.85 48.7036C254.311 48.7036 253.957 49.0652 253.957 49.559C253.957 50.0523 254.311 50.4143 254.85 50.4143Z" fill="white"/>
<path d="M264.004 50.3156H265.099L266.313 47.4197H272.447L273.677 50.3156H274.755L269.868 38.7991H268.891L264.004 50.3156ZM266.717 46.4985L269.38 40.1645L272.059 46.4985H266.717Z" fill="white"/>
<path d="M283.789 50.3156H284.817V40.6415L289.232 47.1072H290.075L294.49 40.6415V50.3156H295.501V38.7991H294.558L289.654 46.0052L284.749 38.7991H283.789V50.3156Z" fill="white"/>
<mask id="mask0_5866_15577" style="mask-type:luminance" maskUnits="userSpaceOnUse" x="193" y="42" width="10" height="9">
<path d="M193.891 42.0461H202.947V50.8873H193.891V42.0461Z" fill="white"/>
</mask>
<g mask="url(#mask0_5866_15577)">
<mask id="mask1_5866_15577" style="mask-type:luminance" maskUnits="userSpaceOnUse" x="193" y="42" width="10" height="9">
<path d="M194.494 42.0461H202.344C202.676 42.0461 202.947 42.3101 202.947 42.6347V50.2987C202.947 50.6238 202.676 50.8873 202.344 50.8873H194.494C194.16 50.8873 193.891 50.6238 193.891 50.2987V42.6347C193.891 42.3101 194.16 42.0461 194.494 42.0461Z" fill="white"/>
</mask>
<g mask="url(#mask1_5866_15577)">
<path d="M193.891 42.0461H202.946V50.8873H193.891V42.0461Z" fill="white"/>
</g>
</g>
<mask id="mask2_5866_15577" style="mask-type:luminance" maskUnits="userSpaceOnUse" x="208" y="42" width="10" height="9">
<path d="M208.664 42.0461H217.72V50.8873H208.664V42.0461Z" fill="white"/>
</mask>
<g mask="url(#mask2_5866_15577)">
<mask id="mask3_5866_15577" style="mask-type:luminance" maskUnits="userSpaceOnUse" x="208" y="42" width="10" height="9">
<path d="M209.267 42.0461H217.117C217.45 42.0461 217.72 42.3101 217.72 42.6347V50.2987C217.72 50.6238 217.45 50.8873 217.117 50.8873H209.267C208.934 50.8873 208.664 50.6238 208.664 50.2987V42.6347C208.664 42.3101 208.934 42.0461 209.267 42.0461Z" fill="white"/>
</mask>
<g mask="url(#mask3_5866_15577)">
<path d="M208.664 42.0461H217.72V50.8873H208.664V42.0461Z" fill="white"/>
</g>
</g>
<mask id="mask4_5866_15577" style="mask-type:luminance" maskUnits="userSpaceOnUse" x="193" y="27" width="10" height="10">
<path d="M193.891 27.6252H202.947V36.4664H193.891V27.6252Z" fill="white"/>
</mask>
<g mask="url(#mask4_5866_15577)">
<mask id="mask5_5866_15577" style="mask-type:luminance" maskUnits="userSpaceOnUse" x="193" y="27" width="10" height="10">
<path d="M194.494 27.6252H202.344C202.676 27.6252 202.947 27.8887 202.947 28.2138V35.8778C202.947 36.2029 202.676 36.4664 202.344 36.4664H194.494C194.16 36.4664 193.891 36.2029 193.891 35.8778V28.2138C193.891 27.8887 194.16 27.6252 194.494 27.6252Z" fill="white"/>
</mask>
<g mask="url(#mask5_5866_15577)">
<path d="M193.891 27.6252H202.946V36.4664H193.891V27.6252Z" fill="white"/>
</g>
</g>
<mask id="mask6_5866_15577" style="mask-type:luminance" maskUnits="userSpaceOnUse" x="208" y="27" width="10" height="10">
<path d="M208.664 27.6252H217.72V36.4664H208.664V27.6252Z" fill="white"/>
</mask>
<g mask="url(#mask6_5866_15577)">
<mask id="mask7_5866_15577" style="mask-type:luminance" maskUnits="userSpaceOnUse" x="208" y="27" width="10" height="10">
<path d="M209.267 27.6252H217.117C217.45 27.6252 217.72 27.8887 217.72 28.2138V35.8778C217.72 36.2029 217.45 36.4664 217.117 36.4664H209.267C208.934 36.4664 208.664 36.2029 208.664 35.8778V28.2138C208.664 27.8887 208.934 27.6252 209.267 27.6252Z" fill="white"/>
</mask>
<g mask="url(#mask7_5866_15577)">
<path d="M208.664 27.6252H217.72V36.4664H208.664V27.6252Z" fill="white"/>
</g>
</g>
<mask id="mask8_5866_15577" style="mask-type:luminance" maskUnits="userSpaceOnUse" x="183" y="13" width="45" height="13">
<path d="M183.73 13.3182H227.916V25.1561H183.73V13.3182Z" fill="white"/>
</mask>
<g mask="url(#mask8_5866_15577)">
<path d="M205.823 15.1781L227.916 25.1484L205.908 13.3969L205.872 13.3254L205.823 13.3511L205.775 13.3254L205.739 13.3969L183.73 25.1484L205.823 15.1781Z" fill="white"/>
</g>
<path d="M123.527 61.4653V62.3521H119.917V61.4653H123.527ZM120.207 58.7559V65.2443H119.035V58.7559H120.207ZM124.429 58.7559V65.2443H123.261V58.7559H124.429Z" fill="white"/>
<path d="M129.705 59.6204L127.673 65.2443H126.445L129.004 58.7559H129.789L129.705 59.6204ZM131.404 65.2443L129.368 59.6204L129.28 58.7559H130.069L132.637 65.2443H131.404ZM131.306 62.8379V63.7247H127.608V62.8379H131.306Z" fill="white"/>
<path d="M138.123 63.5732C138.123 63.4395 138.102 63.3206 138.058 63.2167C138.018 63.1127 137.944 63.0176 137.839 62.9315C137.733 62.8453 137.583 62.7621 137.39 62.6819C137.2 62.5987 136.957 62.514 136.662 62.4279C136.338 62.3328 136.039 62.2274 135.765 62.1115C135.494 61.9927 135.258 61.856 135.055 61.7015C134.853 61.5441 134.696 61.3643 134.584 61.1623C134.471 60.9573 134.415 60.7211 134.415 60.4537C134.415 60.1893 134.473 59.9487 134.588 59.7318C134.707 59.5149 134.873 59.3278 135.088 59.1703C135.306 59.0099 135.563 58.8866 135.858 58.8004C136.154 58.7113 136.481 58.6667 136.839 58.6667C137.344 58.6667 137.778 58.7559 138.142 58.9341C138.509 59.1124 138.791 59.3515 138.987 59.6516C139.187 59.9517 139.286 60.2829 139.286 60.6454H138.123C138.123 60.4315 138.075 60.2428 137.979 60.0794C137.885 59.913 137.742 59.7823 137.549 59.6872C137.359 59.5922 137.118 59.5446 136.825 59.5446C136.548 59.5446 136.318 59.5848 136.134 59.665C135.95 59.7452 135.813 59.8536 135.723 59.9903C135.633 60.1269 135.588 60.2814 135.588 60.4537C135.588 60.5755 135.617 60.687 135.676 60.788C135.736 60.886 135.826 60.9781 135.947 61.0643C136.069 61.1474 136.221 61.2262 136.405 61.3004C136.589 61.3747 136.805 61.446 137.054 61.5143C137.431 61.6213 137.759 61.7401 138.039 61.8708C138.32 61.9986 138.553 62.1442 138.74 62.3076C138.927 62.471 139.067 62.6566 139.16 62.8646C139.254 63.0696 139.3 63.3028 139.3 63.5643C139.3 63.8376 139.243 64.0842 139.127 64.304C139.012 64.5209 138.847 64.7066 138.632 64.861C138.421 65.0126 138.165 65.1299 137.867 65.2131C137.571 65.2933 137.241 65.3334 136.877 65.3334C136.55 65.3334 136.227 65.2918 135.91 65.2086C135.595 65.1255 135.309 64.9992 135.051 64.8299C134.792 64.6575 134.587 64.4436 134.434 64.1881C134.282 63.9297 134.205 63.6281 134.205 63.2835H135.377C135.377 63.4944 135.415 63.6742 135.49 63.8227C135.567 63.9713 135.675 64.0931 135.812 64.1881C135.949 64.2802 136.108 64.3486 136.288 64.3931C136.472 64.4377 136.668 64.46 136.877 64.46C137.151 64.46 137.379 64.4228 137.563 64.3486C137.75 64.2743 137.89 64.1703 137.983 64.0366C138.077 63.9029 138.123 63.7484 138.123 63.5732Z" fill="white"/>
<path d="M145.501 63.132H146.668C146.631 63.5568 146.506 63.9356 146.295 64.2684C146.083 64.5981 145.786 64.8581 145.403 65.0482C145.02 65.2383 144.554 65.3334 144.006 65.3334C143.586 65.3334 143.208 65.2621 142.872 65.1195C142.535 64.9739 142.247 64.7689 142.008 64.5045C141.768 64.2372 141.584 63.9148 141.457 63.5375C141.332 63.1602 141.27 62.7383 141.27 62.2719V61.7327C141.27 61.2663 141.334 60.8444 141.461 60.4671C141.592 60.0898 141.779 59.7675 142.022 59.5001C142.265 59.2297 142.556 59.0233 142.895 58.8807C143.237 58.738 143.622 58.6667 144.048 58.6667C144.59 58.6667 145.048 58.7618 145.421 58.952C145.795 59.1421 146.085 59.405 146.29 59.7407C146.499 60.0764 146.626 60.4612 146.673 60.8949H145.506C145.474 60.6156 145.406 60.3765 145.3 60.1774C145.197 59.9784 145.045 59.8269 144.842 59.7229C144.64 59.6159 144.375 59.5625 144.048 59.5625C143.781 59.5625 143.547 59.61 143.348 59.7051C143.149 59.8001 142.982 59.9398 142.848 60.124C142.714 60.3082 142.613 60.5354 142.545 60.8058C142.479 61.0732 142.447 61.3792 142.447 61.7238V62.2719C142.447 62.5987 142.476 62.8958 142.535 63.1632C142.598 63.4276 142.691 63.6549 142.816 63.845C142.943 64.0351 143.105 64.1822 143.301 64.2862C143.497 64.3902 143.732 64.4422 144.006 64.4422C144.34 64.4422 144.609 64.3916 144.814 64.2906C145.023 64.1896 145.18 64.0426 145.286 63.8495C145.395 63.6534 145.467 63.4142 145.501 63.132Z" fill="white"/>
<path d="M153.331 64.3575V65.2443H149.721V64.3575H153.331ZM150.053 58.7559V65.2443H148.881V58.7559H150.053ZM152.86 61.4653V62.3388H149.721V61.4653H152.86ZM153.308 58.7559V59.6471H149.721V58.7559H153.308Z" fill="white"/>
<path d="M155.371 64.7095C155.371 64.5432 155.43 64.4035 155.548 64.2906C155.667 64.1748 155.827 64.1168 156.029 64.1168C156.235 64.1168 156.395 64.1748 156.51 64.2906C156.629 64.4035 156.688 64.5432 156.688 64.7095C156.688 64.8759 156.629 65.0155 156.51 65.1284C156.395 65.2413 156.235 65.2978 156.029 65.2978C155.827 65.2978 155.667 65.2413 155.548 65.1284C155.43 65.0155 155.371 64.8759 155.371 64.7095Z" fill="white"/>
<path d="M161.894 59.6204L159.862 65.2443H158.634L161.193 58.7559H161.978L161.894 59.6204ZM163.594 65.2443L161.558 59.6204L161.469 58.7559H162.258L164.827 65.2443H163.594ZM163.496 62.8379V63.7247H159.797V62.8379H163.496Z" fill="white"/>
<path d="M167.212 58.7559H168.258L170.224 63.7603L172.185 58.7559H173.231L170.635 65.2443H169.804L167.212 58.7559ZM166.735 58.7559H167.73L167.903 63.0874V65.2443H166.735V58.7559ZM172.713 58.7559H173.712V65.2443H172.54V63.0874L172.713 58.7559Z" fill="white"/>
<path d="M104.332 62.1249H102.417L102.408 61.6614H104.056C104.393 61.6614 104.679 61.6154 104.916 61.5233C105.152 61.4312 105.331 61.2945 105.453 61.1133C105.577 60.9291 105.639 60.7033 105.639 60.4359C105.639 60.1626 105.579 59.9368 105.457 59.7585C105.336 59.5773 105.154 59.4436 104.911 59.3575C104.668 59.2713 104.363 59.2282 103.996 59.2282H102.567V65.2443H101.992V58.7559H103.996C104.341 58.7559 104.651 58.7886 104.925 58.8539C105.199 58.9193 105.432 59.0218 105.625 59.1614C105.818 59.301 105.965 59.4778 106.064 59.6917C106.167 59.9026 106.219 60.1552 106.219 60.4493C106.219 60.7167 106.156 60.9588 106.032 61.1757C105.907 61.3896 105.731 61.5648 105.504 61.7015C105.28 61.8352 105.011 61.9184 104.696 61.9511L104.332 62.1249ZM104.29 65.2443H102.235L102.529 64.7764H104.29C104.626 64.7764 104.912 64.7229 105.149 64.6159C105.389 64.506 105.573 64.3501 105.7 64.148C105.828 63.946 105.892 63.7054 105.892 63.4261C105.892 63.1795 105.836 62.9582 105.723 62.7621C105.611 62.566 105.44 62.4115 105.21 62.2987C104.979 62.1828 104.687 62.1249 104.332 62.1249H103.141L103.15 61.6614H104.836L104.939 61.8263C105.244 61.856 105.51 61.9466 105.738 62.0981C105.968 62.2467 106.145 62.4353 106.27 62.6641C106.398 62.8928 106.461 63.1439 106.461 63.4172C106.461 63.8094 106.37 64.1421 106.186 64.4154C106.005 64.6858 105.752 64.8922 105.425 65.0348C105.101 65.1745 104.723 65.2443 104.29 65.2443Z" fill="white"/>
<path d="M108.674 58.7559L110.733 62.2897L112.811 58.7559H113.475L111.023 62.7978V65.2443H110.448V62.7978L107.992 58.7559H108.674Z" fill="white"/>
</g>
<defs>
<clipPath id="clip0_5866_15577">
<rect width="295" height="80" fill="white" transform="translate(0.5)"/>
</clipPath>
</defs>
</svg>